<?xml version="1.0" encoding="UTF-8" standalone="no"?>
<!DOCTYPE svg PUBLIC "-//W3C//DTD SVG 1.1//EN"
 "http://www.w3.org/Graphics/SVG/1.1/DTD/svg11.dtd">
<!-- Generated by graphviz version 2.40.1 (20161225.0304)
 -->
<!-- Title: G Pages: 1 -->
<svg width="1908pt" height="691pt"
 viewBox="0.00 0.00 1908.34 691.31" xmlns="http://www.w3.org/2000/svg" xmlns:xlink="http://www.w3.org/1999/xlink">
<g id="graph0" class="graph" transform="scale(1 1) rotate(0) translate(4 687.3121)">
<title>G</title>
<polygon fill="#ffffff" stroke="transparent" points="-4,4 -4,-687.3121 1904.3434,-687.3121 1904.3434,4 -4,4"/>
<g id="clust1" class="cluster">
<title>cluster_reader</title>
<polygon fill="#ffb600" stroke="#000000" points="1499.3434,-78.9117 1499.3434,-167.8234 1787.3434,-167.8234 1787.3434,-78.9117 1499.3434,-78.9117"/>
<text text-anchor="middle" x="1643.3434" y="-152.6234" font-family="Times,serif" font-size="14.00" fill="#000000">reader</text>
</g>
<g id="clust2" class="cluster">
<title>cluster_transport</title>
<polygon fill="#ffb600" stroke="#000000" points="250.3434,-175.8234 250.3434,-264.7351 1490.3434,-264.7351 1490.3434,-175.8234 250.3434,-175.8234"/>
<text text-anchor="middle" x="870.3434" y="-249.5351" font-family="Times,serif" font-size="14.00" fill="#000000">transport</text>
</g>
<g id="clust3" class="cluster">
<title>cluster_arguments</title>
<polygon fill="#3399ff" stroke="#000000" points="1796.3434,-175.8234 1796.3434,-264.7351 1892.3434,-264.7351 1892.3434,-175.8234 1796.3434,-175.8234"/>
<text text-anchor="middle" x="1844.3434" y="-249.5351" font-family="Times,serif" font-size="14.00" fill="#000000">Arguments</text>
</g>
<!-- reader_reader -->
<g id="node1" class="node">
<title>reader_reader</title>
<ellipse fill="none" stroke="#000000" cx="1643.3434" cy="-112.3675" rx="136.2321" ry="25.4118"/>
<text text-anchor="middle" x="1643.3434" y="-115.1675" font-family="Times,serif" font-size="14.00" fill="#000000">reader</text>
<text text-anchor="middle" x="1643.3434" y="-101.1675" font-family="Times,serif" font-size="14.00" fill="#000000">(Innmind\Html\Reader\Reader)</text>
</g>
<!-- transport_guzzle -->
<g id="node2" class="node">
<title>transport_guzzle</title>
<ellipse fill="none" stroke="#000000" cx="1303.3434" cy="-209.2792" rx="178.7409" ry="25.4118"/>
<text text-anchor="middle" x="1303.3434" y="-212.0792" font-family="Times,serif" font-size="14.00" fill="#000000">guzzle</text>
<text text-anchor="middle" x="1303.3434" y="-198.0792" font-family="Times,serif" font-size="14.00" fill="#000000">(Innmind\HttpTransport\GuzzleTransport)</text>
</g>
<!-- transport_conservative -->
<g id="node3" class="node">
<title>transport_conservative</title>
<ellipse fill="none" stroke="#000000" cx="927.3434" cy="-209.2792" rx="179.3526" ry="25.4118"/>
<text text-anchor="middle" x="927.3434" y="-212.0792" font-family="Times,serif" font-size="14.00" fill="#000000">conservative</text>
<text text-anchor="middle" x="927.3434" y="-198.0792" font-family="Times,serif" font-size="14.00" fill="#000000">(Innmind\HttpTransport\LoggerTransport)</text>
</g>
<!-- transport_thrower -->
<g id="node4" class="node">
<title>transport_thrower</title>
<ellipse fill="none" stroke="#000000" cx="494.3434" cy="-209.2792" rx="236.107" ry="25.4118"/>
<text text-anchor="middle" x="494.3434" y="-212.0792" font-family="Times,serif" font-size="14.00" fill="#000000">thrower</text>
<text text-anchor="middle" x="494.3434" y="-198.0792" font-family="Times,serif" font-size="14.00" fill="#000000">(Innmind\HttpTransport\ThrowOnServerErrorTransport)</text>
</g>
<!-- profile -->
<g id="node5" class="node">
<title>profile</title>
<ellipse fill="none" stroke="#000000" cx="1844.3434" cy="-209.2792" rx="40.4127" ry="25.4118"/>
<text text-anchor="middle" x="1844.3434" y="-212.0792" font-family="Times,serif" font-size="14.00" fill="#000000">profile</text>
<text text-anchor="middle" x="1844.3434" y="-198.0792" font-family="Times,serif" font-size="14.00" fill="#000000">(string)</text>
</g>
<!-- commands -->
<g id="node6" class="node">
<title>commands</title>
<polygon fill="#00ff00" stroke="#000000" points="881.0535,-661.5595 735.3434,-683.2773 589.6334,-661.5595 589.7694,-626.4193 880.9175,-626.4193 881.0535,-661.5595"/>
<text text-anchor="middle" x="735.3434" y="-654.647" font-family="Times,serif" font-size="14.00" fill="#000000">commands</text>
<text text-anchor="middle" x="735.3434" y="-640.647" font-family="Times,serif" font-size="14.00" fill="#000000">(Innmind\CLI\Commands)</text>
</g>
<!-- commands_watch -->
<g id="node7" class="node">
<title>commands_watch</title>
<ellipse fill="none" stroke="#000000" cx="735.3434" cy="-472.0143" rx="113.781" ry="25.4118"/>
<text text-anchor="middle" x="735.3434" y="-474.8143" font-family="Times,serif" font-size="14.00" fill="#000000">commands.watch</text>
<text text-anchor="middle" x="735.3434" y="-460.8143" font-family="Times,serif" font-size="14.00" fill="#000000">(Series\Command\Watch)</text>
</g>
<!-- commands&#45;&gt;commands_watch -->
<g id="edge1" class="edge">
<title>commands&#45;&gt;commands_watch</title>
<path fill="none" stroke="#000000" d="M735.3434,-626.0813C735.3434,-595.1001 735.3434,-542.9175 735.3434,-507.979"/>
<polygon fill="#000000" stroke="#000000" points="738.8435,-507.7321 735.3434,-497.7321 731.8435,-507.7322 738.8435,-507.7321"/>
</g>
<!-- commands_unwatch -->
<g id="node8" class="node">
<title>commands_unwatch</title>
<ellipse fill="none" stroke="#000000" cx="991.3434" cy="-472.0143" rx="124.6654" ry="25.4118"/>
<text text-anchor="middle" x="991.3434" y="-474.8143" font-family="Times,serif" font-size="14.00" fill="#000000">commands.unwatch</text>
<text text-anchor="middle" x="991.3434" y="-460.8143" font-family="Times,serif" font-size="14.00" fill="#000000">(Series\Command\Unwatch)</text>
</g>
<!-- commands&#45;&gt;commands_unwatch -->
<g id="edge2" class="edge">
<title>commands&#45;&gt;commands_unwatch</title>
<path fill="none" stroke="#000000" d="M771.7501,-626.2723C818.2053,-593.6389 898.4619,-537.2609 948.0155,-502.4509"/>
<polygon fill="#000000" stroke="#000000" points="950.124,-505.2471 956.295,-496.6348 946.1003,-499.5191 950.124,-505.2471"/>
</g>
<!-- commands_report -->
<g id="node9" class="node">
<title>commands_report</title>
<ellipse fill="none" stroke="#000000" cx="381.3434" cy="-558.926" rx="115.5806" ry="25.4118"/>
<text text-anchor="middle" x="381.3434" y="-561.726" font-family="Times,serif" font-size="14.00" fill="#000000">commands.report</text>
<text text-anchor="middle" x="381.3434" y="-547.726" font-family="Times,serif" font-size="14.00" fill="#000000">(Series\Command\Report)</text>
</g>
<!-- commands&#45;&gt;commands_report -->
<g id="edge3" class="edge">
<title>commands&#45;&gt;commands_report</title>
<path fill="none" stroke="#000000" d="M638.1432,-626.333C584.1095,-612.1498 517.5271,-594.6726 465.7006,-581.0688"/>
<polygon fill="#000000" stroke="#000000" points="466.4322,-577.6423 455.8713,-578.4887 464.655,-584.413 466.4322,-577.6423"/>
</g>
<!-- storage_watching -->
<g id="node10" class="node">
<title>storage_watching</title>
<ellipse fill="none" stroke="#000000" cx="770.3434" cy="-385.1026" rx="120.9802" ry="25.4118"/>
<text text-anchor="middle" x="770.3434" y="-387.9026" font-family="Times,serif" font-size="14.00" fill="#000000">storage.watching</text>
<text text-anchor="middle" x="770.3434" y="-373.9026" font-family="Times,serif" font-size="14.00" fill="#000000">(Series\Storage\Filesystem)</text>
</g>
<!-- commands_watch&#45;&gt;storage_watching -->
<g id="edge4" class="edge">
<title>commands_watch&#45;&gt;storage_watching</title>
<path fill="none" stroke="#000000" d="M745.6553,-446.408C749.0019,-438.0976 752.7731,-428.7331 756.3419,-419.8712"/>
<polygon fill="#000000" stroke="#000000" points="759.6163,-421.1094 760.1053,-410.5259 753.1231,-418.4945 759.6163,-421.1094"/>
</g>
<!-- storage_notWatching -->
<g id="node11" class="node">
<title>storage_notWatching</title>
<ellipse fill="none" stroke="#000000" cx="1029.3434" cy="-385.1026" rx="120.9802" ry="25.4118"/>
<text text-anchor="middle" x="1029.3434" y="-387.9026" font-family="Times,serif" font-size="14.00" fill="#000000">storage.notWatching</text>
<text text-anchor="middle" x="1029.3434" y="-373.9026" font-family="Times,serif" font-size="14.00" fill="#000000">(Series\Storage\Filesystem)</text>
</g>
<!-- commands_watch&#45;&gt;storage_notWatching -->
<g id="edge5" class="edge">
<title>commands_watch&#45;&gt;storage_notWatching</title>
<path fill="none" stroke="#000000" d="M804.2734,-451.6374C847.6772,-438.8064 903.8734,-422.1938 949.2541,-408.7784"/>
<polygon fill="#000000" stroke="#000000" points="950.4621,-412.0711 959.0596,-405.8798 948.4776,-405.3583 950.4621,-412.0711"/>
</g>
<!-- calendar_pogdesign -->
<g id="node12" class="node">
<title>calendar_pogdesign</title>
<ellipse fill="none" stroke="#000000" cx="507.3434" cy="-385.1026" rx="124.6654" ry="25.4118"/>
<text text-anchor="middle" x="507.3434" y="-387.9026" font-family="Times,serif" font-size="14.00" fill="#000000">calendar.pogdesign</text>
<text text-anchor="middle" x="507.3434" y="-373.9026" font-family="Times,serif" font-size="14.00" fill="#000000">(Series\Calendar\Pogdesign)</text>
</g>
<!-- commands_watch&#45;&gt;calendar_pogdesign -->
<g id="edge6" class="edge">
<title>commands_watch&#45;&gt;calendar_pogdesign</title>
<path fill="none" stroke="#000000" d="M677.5147,-449.9704C646.5352,-438.1613 608.1776,-423.5397 575.7259,-411.1694"/>
<polygon fill="#000000" stroke="#000000" points="576.892,-407.8683 566.3012,-407.5768 574.3986,-414.4092 576.892,-407.8683"/>
</g>
<!-- clock -->
<g id="node13" class="node">
<title>clock</title>
<ellipse fill="none" stroke="#000000" cx="211.3434" cy="-112.3675" rx="211.187" ry="25.4118"/>
<text text-anchor="middle" x="211.3434" y="-115.1675" font-family="Times,serif" font-size="14.00" fill="#000000">clock</text>
<text text-anchor="middle" x="211.3434" y="-101.1675" font-family="Times,serif" font-size="14.00" fill="#000000">(Innmind\TimeContinuum\TimeContinuum\Earth)</text>
</g>
<!-- commands_watch&#45;&gt;clock -->
<g id="edge7" class="edge">
<title>commands_watch&#45;&gt;clock</title>
<path fill="none" stroke="#000000" d="M653.0912,-454.3444C639.5031,-451.6116 625.5455,-448.9171 612.3434,-446.5584 506.5973,-427.6663 465.5034,-465.7463 373.3434,-410.5584 349.1193,-396.0524 353.4732,-381.2927 335.3434,-359.6468 298.2126,-315.3145 273.5346,-315.7712 246.3434,-264.7351 226.7365,-227.9339 218.0575,-180.4278 214.2517,-148.3195"/>
<polygon fill="#000000" stroke="#000000" points="217.6967,-147.6231 213.1391,-138.0587 210.7375,-148.3777 217.6967,-147.6231"/>
</g>
<!-- commands_unwatch&#45;&gt;storage_watching -->
<g id="edge17" class="edge">
<title>commands_unwatch&#45;&gt;storage_watching</title>
<path fill="none" stroke="#000000" d="M933.8552,-449.4061C904.184,-437.7375 867.8297,-423.4406 836.9411,-411.2931"/>
<polygon fill="#000000" stroke="#000000" points="838.131,-408.0002 827.5438,-407.5975 835.5691,-414.5146 838.131,-408.0002"/>
</g>
<!-- commands_unwatch&#45;&gt;storage_notWatching -->
<g id="edge18" class="edge">
<title>commands_unwatch&#45;&gt;storage_notWatching</title>
<path fill="none" stroke="#000000" d="M1002.5392,-446.408C1006.1727,-438.0976 1010.2671,-428.7331 1014.1417,-419.8712"/>
<polygon fill="#000000" stroke="#000000" points="1017.4285,-421.0905 1018.2277,-410.5259 1011.0147,-418.2862 1017.4285,-421.0905"/>
</g>
<!-- commands_report&#45;&gt;clock -->
<g id="edge20" class="edge">
<title>commands_report&#45;&gt;clock</title>
<path fill="none" stroke="#000000" d="M309.0416,-538.8829C206.291,-508.2242 30.3434,-446.7281 30.3434,-385.1026 30.3434,-385.1026 30.3434,-385.1026 30.3434,-298.1909 30.3434,-227.3072 98.7626,-173.3428 151.4697,-142.2875"/>
<polygon fill="#000000" stroke="#000000" points="153.518,-145.1472 160.4432,-137.1289 150.0292,-139.0785 153.518,-145.1472"/>
</g>
<!-- calendar -->
<g id="node18" class="node">
<title>calendar</title>
<ellipse fill="none" stroke="#000000" cx="464.3434" cy="-472.0143" rx="139.0905" ry="25.4118"/>
<text text-anchor="middle" x="464.3434" y="-474.8143" font-family="Times,serif" font-size="14.00" fill="#000000">calendar</text>
<text text-anchor="middle" x="464.3434" y="-460.8143" font-family="Times,serif" font-size="14.00" fill="#000000">(Series\Calendar\StorageAware)</text>
</g>
<!-- commands_report&#45;&gt;calendar -->
<g id="edge19" class="edge">
<title>commands_report&#45;&gt;calendar</title>
<path fill="none" stroke="#000000" d="M405.3505,-533.7875C414.1255,-524.599 424.1776,-514.0731 433.4681,-504.3447"/>
<polygon fill="#000000" stroke="#000000" points="436.0151,-506.7455 440.3904,-497.0962 430.9527,-501.911 436.0151,-506.7455"/>
</g>
<!-- lastReport -->
<g id="node19" class="node">
<title>lastReport</title>
<ellipse fill="none" stroke="#000000" cx="192.3434" cy="-385.1026" rx="134.474" ry="25.4118"/>
<text text-anchor="middle" x="192.3434" y="-387.9026" font-family="Times,serif" font-size="14.00" fill="#000000">lastReport</text>
<text text-anchor="middle" x="192.3434" y="-373.9026" font-family="Times,serif" font-size="14.00" fill="#000000">(Series\LastReport\Filesystem)</text>
</g>
<!-- commands_report&#45;&gt;lastReport -->
<g id="edge21" class="edge">
<title>commands_report&#45;&gt;lastReport</title>
<path fill="none" stroke="#000000" d="M354.2644,-534.0213C320.8167,-503.2595 263.8561,-450.8728 227.1813,-417.143"/>
<polygon fill="#000000" stroke="#000000" points="229.4087,-414.4363 219.679,-410.2431 224.6701,-419.5886 229.4087,-414.4363"/>
</g>
<!-- filesystem -->
<g id="node14" class="node">
<title>filesystem</title>
<ellipse fill="none" stroke="#000000" cx="1029.3434" cy="-298.1909" rx="209.0398" ry="25.4118"/>
<text text-anchor="middle" x="1029.3434" y="-300.9909" font-family="Times,serif" font-size="14.00" fill="#000000">filesystem</text>
<text text-anchor="middle" x="1029.3434" y="-286.9909" font-family="Times,serif" font-size="14.00" fill="#000000">(Innmind\Filesystem\Adapter\FilesystemAdapter)</text>
</g>
<!-- storage_watching&#45;&gt;filesystem -->
<g id="edge8" class="edge">
<title>storage_watching&#45;&gt;filesystem</title>
<path fill="none" stroke="#000000" d="M834.6987,-363.5071C869.0805,-351.9698 911.7461,-337.6526 948.362,-325.3656"/>
<polygon fill="#000000" stroke="#000000" points="949.656,-328.6232 958.023,-322.1236 947.4291,-321.9869 949.656,-328.6232"/>
</g>
<!-- storage_notWatching&#45;&gt;filesystem -->
<g id="edge10" class="edge">
<title>storage_notWatching&#45;&gt;filesystem</title>
<path fill="none" stroke="#000000" d="M1029.3434,-359.4963C1029.3434,-351.5224 1029.3434,-342.5779 1029.3434,-334.0381"/>
<polygon fill="#000000" stroke="#000000" points="1032.8435,-333.9145 1029.3434,-323.9145 1025.8435,-333.9146 1032.8435,-333.9145"/>
</g>
<!-- crawler -->
<g id="node15" class="node">
<title>crawler</title>
<ellipse fill="none" stroke="#000000" cx="646.3434" cy="-298.1909" rx="155.2087" ry="25.4118"/>
<text text-anchor="middle" x="646.3434" y="-300.9909" font-family="Times,serif" font-size="14.00" fill="#000000">crawler</text>
<text text-anchor="middle" x="646.3434" y="-286.9909" font-family="Times,serif" font-size="14.00" fill="#000000">(Innmind\Crawler\Crawler\Crawler)</text>
</g>
<!-- calendar_pogdesign&#45;&gt;crawler -->
<g id="edge11" class="edge">
<title>calendar_pogdesign&#45;&gt;crawler</title>
<path fill="none" stroke="#000000" d="M546.0627,-360.8928C562.2065,-350.7987 581.1271,-338.9683 598.1573,-328.3199"/>
<polygon fill="#000000" stroke="#000000" points="600.2426,-331.144 606.866,-322.8747 596.5315,-325.2087 600.2426,-331.144"/>
</g>
<!-- clock_timezone -->
<g id="node17" class="node">
<title>clock_timezone</title>
<ellipse fill="none" stroke="#000000" cx="211.3434" cy="-25.4558" rx="208.055" ry="25.4118"/>
<text text-anchor="middle" x="211.3434" y="-28.2558" font-family="Times,serif" font-size="14.00" fill="#000000">clock.timezone</text>
<text text-anchor="middle" x="211.3434" y="-14.2558" font-family="Times,serif" font-size="14.00" fill="#000000">(Innmind\TimeContinuum\Timezone\Earth\UTC)</text>
</g>
<!-- clock&#45;&gt;clock_timezone -->
<g id="edge16" class="edge">
<title>clock&#45;&gt;clock_timezone</title>
<path fill="none" stroke="#000000" d="M211.3434,-86.7612C211.3434,-78.7873 211.3434,-69.8428 211.3434,-61.303"/>
<polygon fill="#000000" stroke="#000000" points="214.8435,-61.1794 211.3434,-51.1795 207.8435,-61.1795 214.8435,-61.1794"/>
</g>
<!-- filesystem&#45;&gt;profile -->
<g id="edge9" class="edge">
<title>filesystem&#45;&gt;profile</title>
<path fill="none" stroke="#000000" d="M1234.6056,-293.1856C1452.8868,-287.2641 1770.3045,-276.6881 1795.3434,-264.7351 1806.3734,-259.4696 1815.9723,-250.4594 1823.6806,-241.2147"/>
<polygon fill="#000000" stroke="#000000" points="1826.5961,-243.1663 1829.9563,-233.1184 1821.0636,-238.8778 1826.5961,-243.1663"/>
</g>
<!-- crawler&#45;&gt;transport_conservative -->
<g id="edge12" class="edge">
<title>crawler&#45;&gt;transport_conservative</title>
<path fill="none" stroke="#000000" d="M717.9787,-275.5247C756.4345,-263.3568 804.0348,-248.2955 844.1265,-235.61"/>
<polygon fill="#000000" stroke="#000000" points="845.4028,-238.8773 853.881,-232.5236 843.291,-232.2034 845.4028,-238.8773"/>
</g>
<!-- parser_episodes -->
<g id="node16" class="node">
<title>parser_episodes</title>
<ellipse fill="none" stroke="#000000" cx="1643.3434" cy="-209.2792" rx="142.9381" ry="25.4118"/>
<text text-anchor="middle" x="1643.3434" y="-212.0792" font-family="Times,serif" font-size="14.00" fill="#000000">parser.episodes</text>
<text text-anchor="middle" x="1643.3434" y="-198.0792" font-family="Times,serif" font-size="14.00" fill="#000000">(Series\Crawler\Parser\Episodes)</text>
</g>
<!-- crawler&#45;&gt;parser_episodes -->
<g id="edge13" class="edge">
<title>crawler&#45;&gt;parser_episodes</title>
<path fill="none" stroke="#000000" d="M752.5916,-279.5403C772.0767,-276.764 792.2784,-274.3094 811.3434,-272.7351 886.9801,-266.4891 1419.7306,-278.6215 1494.3434,-264.7351 1524.4322,-259.1352 1556.4094,-247.9824 1582.9941,-237.1377"/>
<polygon fill="#000000" stroke="#000000" points="1584.6445,-240.2418 1592.5311,-233.167 1581.954,-233.7795 1584.6445,-240.2418"/>
</g>
<!-- parser_episodes&#45;&gt;reader_reader -->
<g id="edge14" class="edge">
<title>parser_episodes&#45;&gt;reader_reader</title>
<path fill="none" stroke="#000000" d="M1643.3434,-183.8168C1643.3434,-172.8864 1643.3434,-159.9238 1643.3434,-148.0603"/>
<polygon fill="#000000" stroke="#000000" points="1646.8435,-147.9963 1643.3434,-137.9964 1639.8435,-147.9964 1646.8435,-147.9963"/>
</g>
<!-- parser_episodes&#45;&gt;clock -->
<g id="edge15" class="edge">
<title>parser_episodes&#45;&gt;clock</title>
<path fill="none" stroke="#000000" d="M1561.8268,-188.3292C1540.0384,-183.4574 1516.4106,-178.8239 1494.3434,-175.8234 1294.6587,-148.6713 737.4959,-128.2308 427.1014,-118.5576"/>
<polygon fill="#000000" stroke="#000000" points="427.1818,-115.0585 417.0779,-118.2463 426.9644,-122.0552 427.1818,-115.0585"/>
</g>
<!-- calendar&#45;&gt;storage_watching -->
<g id="edge23" class="edge">
<title>calendar&#45;&gt;storage_watching</title>
<path fill="none" stroke="#000000" d="M539.9839,-450.5305C585.0918,-437.7187 642.3738,-421.4492 688.5318,-408.3392"/>
<polygon fill="#000000" stroke="#000000" points="689.5409,-411.6911 698.2041,-405.592 687.6283,-404.9574 689.5409,-411.6911"/>
</g>
<!-- calendar&#45;&gt;calendar_pogdesign -->
<g id="edge22" class="edge">
<title>calendar&#45;&gt;calendar_pogdesign</title>
<path fill="none" stroke="#000000" d="M477.0123,-446.408C481.1676,-438.0092 485.8557,-428.5338 490.2814,-419.5885"/>
<polygon fill="#000000" stroke="#000000" points="493.4677,-421.041 494.7651,-410.5259 487.1936,-417.9368 493.4677,-421.041"/>
</g>
<!-- lastReport&#45;&gt;clock -->
<g id="edge25" class="edge">
<title>lastReport&#45;&gt;clock</title>
<path fill="none" stroke="#000000" d="M194.1309,-359.4443C197.5329,-310.6106 204.9459,-204.2014 208.8399,-148.3053"/>
<polygon fill="#000000" stroke="#000000" points="212.3434,-148.3754 209.5469,-138.1563 205.3603,-147.8888 212.3434,-148.3754"/>
</g>
<!-- lastReport&#45;&gt;filesystem -->
<g id="edge24" class="edge">
<title>lastReport&#45;&gt;filesystem</title>
<path fill="none" stroke="#000000" d="M297.973,-369.2051C322.6704,-365.7773 348.9017,-362.37 373.3434,-359.6468 567.0252,-338.0674 616.4167,-342.8998 810.3434,-323.6468 829.9015,-321.705 850.4244,-319.5181 870.7383,-317.2625"/>
<polygon fill="#000000" stroke="#000000" points="871.1392,-320.7396 880.6886,-316.1504 870.3617,-313.7829 871.1392,-320.7396"/>
</g>
</g>
</svg>
